PathFileType  4	(X/Y/Z) C:\Users\antoi\Documents\MyRepositories\mobilecap\ResultsAnalysis
DataRate	CameraRate	NumFrames	NumMarkers	Units	OrigDataRate	OrigDataStartFrame	OrigNumFrames
100.0	100.0	4	51	mm	100.0	177	1411
Frame#	Time	r_knee			r_shank_antsup			r_ankle			r_calc			r_5meta			r_toe			L_knee			L_shank_antsup			L_ankle			L_calc			L_5meta			L_toe			r_sh2			r_sh3			r_sh4			L_sh2			L_sh3			r_thigh1			r_thigh2			r_thigh3			r_thigh4			r_thigh5			L_thigh1			L_thigh2			L_thigh3			L_thigh4			r.ASIS			r.PSIS			L.ASIS			L.PSIS			C7			R_Shoulder			L_Shoulder			R_Sternum			L_Sternum			R_humerus			R_elbow_med			R_elbow_lat			R_forearm			R_wrist_radius			R_wrist_ulna			L_humerus			L_elbow_med			L_elbow_lat			L_forearm			L_wrist_radius			L_wrist_ulna			R_HJC			L_HJC			R_HJC_reg			L_HJC_reg			
		X1	Y1	Z1	X2	Y2	Z2	X3	Y3	Z3	X4	Y4	Z4	X5	Y5	Z5	X6	Y6	Z6	X7	Y7	Z7	X8	Y8	Z8	X9	Y9	Z9	X10	Y10	Z10	X11	Y11	Z11	X12	Y12	Z12	X13	Y13	Z13	X14	Y14	Z14	X15	Y15	Z15	X16	Y16	Z16	X17	Y17	Z17	X18	Y18	Z18	X19	Y19	Z19	X20	Y20	Z20	X21	Y21	Z21	X22	Y22	Z22	X23	Y23	Z23	X24	Y24	Z24	X25	Y25	Z25	X26	Y26	Z26	X27	Y27	Z27	X28	Y28	Z28	X29	Y29	Z29	X30	Y30	Z30	X31	Y31	Z31	X32	Y32	Z32	X33	Y33	Z33	X34	Y34	Z34	X35	Y35	Z35	X36	Y36	Z36	X37	Y37	Z37	X38	Y38	Z38	X39	Y39	Z39	X40	Y40	Z40	X41	Y41	Z41	X42	Y42	Z42	X43	Y43	Z43	X44	Y44	Z44	X45	Y45	Z45	X46	Y46	Z46	X47	Y47	Z47	X48	Y48	Z48	X49	Y49	Z49	X50	Y50	Z50	X51	Y51	Z51	

177	1.76000000	-219.99380	466.85564	-422.87226	-210.65800	396.82298	-394.77681	-266.52834	95.37158	-409.05561	-333.27851	56.27660	-446.60083	-166.07049	46.82102	-373.49892	-121.01440	67.26874	-426.65104	-216.70794	465.27721	-778.07566	-188.01887	400.22877	-787.12679	-253.20800	96.32971	-784.18517	-323.54828	58.67552	-736.42621	-163.27264	43.05331	-814.51621	-112.81240	66.08213	-761.08498	-224.75942	285.07646	-382.12383	-283.44398	403.04141	-410.51511	-304.25968	288.75037	-402.42409	-274.67999	416.00752	-806.08915	-280.45578	294.20949	-814.87697	-254.61738	771.28187	-460.12287	-212.99732	668.26096	-439.12863	-253.04539	635.29772	-395.48640	-346.79920	747.01319	-397.66904	-309.65879	635.56070	-395.86546	-248.23654	753.28088	-774.65563	-199.02801	623.61119	-776.53908	-357.43294	714.87369	-795.42370	-299.01101	585.67877	-796.99297	-277.23606	888.48511	-473.95441	-449.80565	937.23353	-548.78043	-268.99129	888.43795	-727.10353	-449.45836	934.75546	-655.92416	-246.52312	1365.42722	-584.76552	-195.88409	1302.39425	-434.42124	-187.14094	1312.74643	-746.68037	-145.98868	1262.35348	-567.96421	-145.93064	1263.41887	-612.16194	-266.99735	1080.66375	-350.71668	-324.95109	985.44166	-413.70932	-308.50673	1006.45381	-335.86388	-194.30487	1002.58749	-356.08214	-88.39751	1000.43819	-389.88339	-88.29292	955.28772	-386.38451	-187.85323	1185.96621	-805.98977	-291.33815	985.34224	-780.06068	-282.02420	998.98340	-852.12690	-168.84862	1015.35352	-833.95859	-62.62536	1026.32559	-782.58440	-54.31296	991.79025	-792.43663	-352.35728	825.20023	-501.58634	-343.81902	827.65872	-701.68129	-349.37861	822.24946	-508.33857	-348.83664	818.38473	-675.45917	
178	1.77000000	-218.19957	466.42960	-422.04960	-208.65909	396.13077	-394.00953	-266.58212	95.23227	-408.82595	-333.39388	56.03442	-446.59860	-166.15239	47.10755	-373.48117	-121.17074	67.65922	-426.64606	-213.47618	464.77514	-779.57445	-184.92640	399.21052	-788.82880	-253.49255	96.18299	-784.34894	-323.69019	58.39495	-736.28748	-163.34273	43.20276	-814.52271	-113.03908	66.53025	-761.17772	-223.26088	284.49441	-381.64670	-281.32961	403.00641	-409.35448	-302.92343	288.56202	-401.34772	-271.54441	415.90656	-807.24292	-278.81125	294.16021	-815.75159	-260.17414	769.73938	-460.45248	-215.72791	668.00461	-439.31938	-254.20875	634.24949	-395.17404	-350.89843	743.78130	-396.31608	-311.02686	633.33219	-394.41532	-253.97914	751.98724	-775.18449	-200.43675	624.02035	-777.31458	-361.92223	710.00032	-795.73000	-299.07809	582.85269	-798.04770	-282.94091	882.92263	-474.21668	-454.56038	935.29024	-547.49693	-274.70621	883.03146	-726.95933	-454.25900	932.25308	-654.70813	-243.90539	1358.60306	-583.75116	-192.20343	1294.45851	-433.90404	-184.76077	1305.32738	-745.17612	-144.34853	1254.12005	-567.35608	-144.40754	1255.29216	-611.50092	-263.90269	1073.62135	-349.23093	-322.73118	978.57087	-411.50061	-305.86800	999.64627	-333.87842	-191.77302	996.09185	-354.34117	-86.10305	994.22737	-388.70515	-85.78064	949.22744	-384.92052	-185.87872	1179.17288	-804.97038	-290.33251	978.20624	-780.55753	-280.40320	992.35059	-852.21518	-167.35723	1008.74267	-833.85252	-61.19432	1019.85613	-782.32060	-52.73864	985.34629	-792.24974	-358.89893	821.07448	-501.11958	-350.95270	823.61228	-701.23818	-356.53682	819.08823	-508.20975	-356.06788	814.36228	-675.04140	
179	1.78000000	-216.61696	465.77303	-421.59710	-206.60619	395.36024	-393.18163	-266.66856	95.02430	-408.64669	-333.50757	55.77870	-446.75148	-166.29646	47.42833	-373.49499	-121.35350	68.03215	-426.63360	-210.65569	464.04005	-781.33830	-182.37357	397.92073	-790.44864	-253.68054	95.89118	-784.49206	-323.78703	58.12412	-736.26716	-163.43490	43.44445	-814.54610	-113.21958	66.87828	-761.11673	-221.66110	283.73082	-381.22225	-279.39459	402.75300	-407.99446	-301.54005	288.42913	-400.30937	-269.00078	415.39608	-807.89328	-277.65858	293.79566	-816.17970	-265.53150	767.94823	-461.00027	-218.61193	667.64525	-439.40292	-255.55354	633.19731	-394.60558	-355.01590	740.36989	-395.05021	-312.29686	631.01848	-392.96987	-259.49765	750.23077	-775.68351	-201.88137	623.92559	-777.91229	-366.12001	704.87380	-795.88346	-299.21731	579.82446	-798.97081	-288.71438	877.03644	-474.22485	-459.38160	932.83261	-546.47638	-280.23953	876.96162	-726.84850	-459.06160	929.19817	-653.84493	-241.47201	1351.28509	-582.72710	-188.70730	1285.87542	-433.40869	-182.48929	1297.27495	-743.95690	-143.01019	1245.25416	-566.74195	-142.99347	1246.55439	-610.82635	-260.63914	1065.67587	-347.71895	-320.01308	970.42677	-408.64745	-302.91387	992.03500	-331.57040	-189.03837	988.83654	-352.49065	-83.57204	987.36624	-387.52522	-83.08328	942.41698	-383.52062	-183.93992	1171.47451	-803.91720	-288.52683	970.30917	-780.64960	-278.57226	984.93359	-852.47861	-165.76537	1001.39161	-833.82424	-59.65619	1012.74300	-782.10140	-51.09534	978.23648	-791.96239	-365.54209	816.59135	-500.62568	-357.90853	818.96426	-700.75838	-363.64030	815.34799	-507.91871	-363.14337	809.70295	-674.64840	
180	1.79000000	-214.96266	465.10985	-420.90539	-204.67637	394.54517	-392.34475	-266.82911	94.81428	-408.54451	-333.61703	55.54130	-446.93541	-166.49202	47.67536	-373.49953	-121.55809	68.46267	-426.57295	-208.30293	463.18357	-783.30133	-180.37229	396.44481	-791.90106	-253.74280	95.57756	-784.62892	-323.82549	57.89104	-736.32293	-163.53642	43.69236	-814.50203	-113.34457	67.14614	-760.91139	-220.19071	282.91759	-380.65891	-277.48649	402.44326	-406.69430	-300.12727	288.41509	-399.22506	-267.02098	414.51100	-808.41710	-276.83315	293.04874	-816.21566	-271.07574	765.92967	-461.36255	-221.47236	667.10908	-439.46043	-256.88856	632.17104	-393.80392	-359.19217	736.53708	-394.05236	-313.39688	628.48270	-391.38204	-264.58443	748.04756	-776.08061	-203.34883	623.38130	-778.45777	-369.97515	699.71866	-795.96202	-299.39288	576.61122	-799.63555	-294.52466	870.75818	-474.09100	-464.29007	929.95590	-545.82040	-285.66406	870.22173	-726.68199	-463.94788	925.62876	-653.34802	-239.17455	1343.45258	-581.76497	-185.68388	1276.55952	-433.21020	-180.24146	1288.64522	-743.09519	-141.90912	1235.92527	-566.19714	-141.82288	1237.35923	-610.14410	-257.24448	1057.03178	-346.20530	-317.12199	961.51606	-405.21604	-299.73276	983.70025	-328.97376	-186.14480	980.85745	-350.64116	-80.81375	979.80759	-386.27389	-80.13786	934.70897	-382.29716	-182.07473	1162.93875	-803.03016	-285.99275	961.88135	-780.32557	-276.58397	976.77363	-852.97751	-163.94015	993.44415	-833.95727	-57.98285	1005.00713	-781.88716	-49.36767	970.46465	-791.66580	-372.34768	811.76015	-500.14578	-364.77125	813.72403	-700.28533	-370.71747	811.17838	-507.47820	-370.18730	804.47175	-674.15435	
